<mxfile host="app.diagrams.net" agent="Mozilla/5.0 (Windows NT 10.0; Win64; x64) AppleWebKit/537.36 (KHTML, like Gecko) Chrome/129.0.0.0 Safari/537.36 Edg/129.0.0.0" version="24.7.16">
  <diagram name="Страница — 1" id="I9b2rhlldtggpzdVo2Wk">
    <mxGraphModel dx="6649" dy="2132" grid="1" gridSize="10" guides="1" tooltips="1" connect="1" arrows="1" fold="1" page="1" pageScale="1" pageWidth="827" pageHeight="1169" background="#ffffff" math="0" shadow="0">
      <root>
        <mxCell id="0" />
        <mxCell id="1" parent="0" />
        <mxCell id="IYKv4-9v9WQwq1Tj8tWP-46" value="" style="strokeWidth=1;shadow=0;dashed=0;align=left;html=1;shape=mxgraph.mockup.containers.browserWindow;rSize=0;strokeColor=#666666;strokeColor2=#008cff;strokeColor3=#c4c4c4;mainText=,;recursiveResize=0;container=0;" parent="1" vertex="1">
          <mxGeometry x="-709" y="260" width="1320" height="720" as="geometry" />
        </mxCell>
        <mxCell id="IYKv4-9v9WQwq1Tj8tWP-61" value="Кнопка отправляет запрос на авторизацию токена. При успешной авторизации кнопка должна изменится на зеленый цвет и надпись &quot;ACTIVATE&quot;. Токен фиксируется и не должен меняться. Для деактивации необходимо повторно нажать на кнопку.&amp;nbsp;&lt;div&gt;С активным Токеном у пользователя расширяется доступный функционал.&lt;/div&gt;" style="whiteSpace=wrap;html=1;shape=mxgraph.basic.rectCallout;dx=30;dy=15;boundedLbl=1;" parent="1" vertex="1">
          <mxGeometry x="581" y="240" width="250" height="140" as="geometry" />
        </mxCell>
        <mxCell id="IYKv4-9v9WQwq1Tj8tWP-113" value="" style="shape=mxgraph.mockup.forms.rrect;rSize=5;strokeColor=#DFE1E5;fillColor=#ffffff;shadow=1" parent="1" vertex="1">
          <mxGeometry x="1061" y="580" width="250" height="177.11" as="geometry" />
        </mxCell>
        <mxCell id="IYKv4-9v9WQwq1Tj8tWP-114" value="November 2015" style="strokeColor=none;fillColor=none;fontColor=#253858;fontSize=16;fontStyle=1" parent="IYKv4-9v9WQwq1Tj8tWP-113" vertex="1">
          <mxGeometry x="46.875" y="8.096457142857142" width="156.25" height="20.241142857142858" as="geometry" />
        </mxCell>
        <mxCell id="IYKv4-9v9WQwq1Tj8tWP-115" value="&lt;" style="strokeColor=none;fillColor=none;fontColor=#253858;fontSize=19;fontStyle=1;" parent="IYKv4-9v9WQwq1Tj8tWP-113" vertex="1">
          <mxGeometry x="12.5" y="8.096457142857142" width="39.0625" height="20.241142857142858" as="geometry" />
        </mxCell>
        <mxCell id="IYKv4-9v9WQwq1Tj8tWP-116" value="&gt;" style="strokeColor=none;fillColor=none;fontColor=#253858;fontSize=19;fontStyle=1;" parent="IYKv4-9v9WQwq1Tj8tWP-113" vertex="1">
          <mxGeometry x="198.43749999999997" y="8.096457142857142" width="39.0625" height="20.241142857142858" as="geometry" />
        </mxCell>
        <mxCell id="IYKv4-9v9WQwq1Tj8tWP-117" value="SUN" style="strokeColor=none;fillColor=none;fontColor=#999999;fontSize=12;fontStyle=1" parent="IYKv4-9v9WQwq1Tj8tWP-113" vertex="1">
          <mxGeometry x="15.625000000000002" y="28.3376" width="31.250000000000004" height="20.241142857142858" as="geometry" />
        </mxCell>
        <mxCell id="IYKv4-9v9WQwq1Tj8tWP-118" value="MON" style="strokeColor=none;fillColor=none;fontColor=#999999;fontSize=12;fontStyle=1" parent="IYKv4-9v9WQwq1Tj8tWP-113" vertex="1">
          <mxGeometry x="46.875" y="28.3376" width="31.250000000000004" height="20.241142857142858" as="geometry" />
        </mxCell>
        <mxCell id="IYKv4-9v9WQwq1Tj8tWP-119" value="TUE" style="strokeColor=none;fillColor=none;fontColor=#999999;fontSize=12;fontStyle=1" parent="IYKv4-9v9WQwq1Tj8tWP-113" vertex="1">
          <mxGeometry x="78.125" y="28.3376" width="31.250000000000004" height="20.241142857142858" as="geometry" />
        </mxCell>
        <mxCell id="IYKv4-9v9WQwq1Tj8tWP-120" value="WED" style="strokeColor=none;fillColor=none;fontColor=#999999;fontSize=12;fontStyle=1" parent="IYKv4-9v9WQwq1Tj8tWP-113" vertex="1">
          <mxGeometry x="109.37499999999999" y="28.3376" width="31.250000000000004" height="20.241142857142858" as="geometry" />
        </mxCell>
        <mxCell id="IYKv4-9v9WQwq1Tj8tWP-121" value="THU" style="strokeColor=none;fillColor=none;fontColor=#999999;fontSize=12;fontStyle=1" parent="IYKv4-9v9WQwq1Tj8tWP-113" vertex="1">
          <mxGeometry x="140.625" y="28.3376" width="31.250000000000004" height="20.241142857142858" as="geometry" />
        </mxCell>
        <mxCell id="IYKv4-9v9WQwq1Tj8tWP-122" value="FRI" style="strokeColor=none;fillColor=none;fontColor=#999999;fontSize=12;fontStyle=1" parent="IYKv4-9v9WQwq1Tj8tWP-113" vertex="1">
          <mxGeometry x="171.875" y="28.3376" width="31.250000000000004" height="20.241142857142858" as="geometry" />
        </mxCell>
        <mxCell id="IYKv4-9v9WQwq1Tj8tWP-123" value="SAT" style="strokeColor=none;fillColor=none;fontColor=#999999;fontSize=12;fontStyle=1" parent="IYKv4-9v9WQwq1Tj8tWP-113" vertex="1">
          <mxGeometry x="203.12500000000003" y="28.3376" width="31.250000000000004" height="20.241142857142858" as="geometry" />
        </mxCell>
        <mxCell id="IYKv4-9v9WQwq1Tj8tWP-124" value="31" style="strokeColor=none;fillColor=none;fontColor=#999999;fontSize=16" parent="IYKv4-9v9WQwq1Tj8tWP-113" vertex="1">
          <mxGeometry x="15.625000000000002" y="48.578742857142856" width="31.250000000000004" height="20.241142857142858" as="geometry" />
        </mxCell>
        <mxCell id="IYKv4-9v9WQwq1Tj8tWP-125" value="1" style="strokeColor=none;fillColor=none;fontColor=#000000;fontSize=16" parent="IYKv4-9v9WQwq1Tj8tWP-113" vertex="1">
          <mxGeometry x="46.875" y="48.578742857142856" width="31.250000000000004" height="20.241142857142858" as="geometry" />
        </mxCell>
        <mxCell id="IYKv4-9v9WQwq1Tj8tWP-126" value="2" style="strokeColor=none;fillColor=none;fontColor=#000000;fontSize=16" parent="IYKv4-9v9WQwq1Tj8tWP-113" vertex="1">
          <mxGeometry x="78.125" y="48.578742857142856" width="31.250000000000004" height="20.241142857142858" as="geometry" />
        </mxCell>
        <mxCell id="IYKv4-9v9WQwq1Tj8tWP-127" value="3" style="strokeColor=none;fillColor=none;fontColor=#000000;fontSize=16" parent="IYKv4-9v9WQwq1Tj8tWP-113" vertex="1">
          <mxGeometry x="109.37499999999999" y="48.578742857142856" width="31.250000000000004" height="20.241142857142858" as="geometry" />
        </mxCell>
        <mxCell id="IYKv4-9v9WQwq1Tj8tWP-128" value="4" style="strokeColor=none;fillColor=none;fontColor=#000000;fontSize=16" parent="IYKv4-9v9WQwq1Tj8tWP-113" vertex="1">
          <mxGeometry x="140.625" y="48.578742857142856" width="31.250000000000004" height="20.241142857142858" as="geometry" />
        </mxCell>
        <mxCell id="IYKv4-9v9WQwq1Tj8tWP-129" value="5" style="strokeColor=none;fillColor=none;fontColor=#000000;fontSize=16" parent="IYKv4-9v9WQwq1Tj8tWP-113" vertex="1">
          <mxGeometry x="171.875" y="48.578742857142856" width="31.250000000000004" height="20.241142857142858" as="geometry" />
        </mxCell>
        <mxCell id="IYKv4-9v9WQwq1Tj8tWP-130" value="6" style="strokeColor=none;fillColor=none;fontColor=#000000;fontSize=16" parent="IYKv4-9v9WQwq1Tj8tWP-113" vertex="1">
          <mxGeometry x="203.12500000000003" y="48.578742857142856" width="31.250000000000004" height="20.241142857142858" as="geometry" />
        </mxCell>
        <mxCell id="IYKv4-9v9WQwq1Tj8tWP-131" value="7" style="strokeColor=none;fillColor=none;fontColor=#000000;fontSize=16" parent="IYKv4-9v9WQwq1Tj8tWP-113" vertex="1">
          <mxGeometry x="15.625000000000002" y="68.8198857142857" width="31.250000000000004" height="20.241142857142858" as="geometry" />
        </mxCell>
        <mxCell id="IYKv4-9v9WQwq1Tj8tWP-132" value="8" style="strokeColor=none;fillColor=none;fontColor=#000000;fontSize=16" parent="IYKv4-9v9WQwq1Tj8tWP-113" vertex="1">
          <mxGeometry x="46.875" y="68.8198857142857" width="31.250000000000004" height="20.241142857142858" as="geometry" />
        </mxCell>
        <mxCell id="IYKv4-9v9WQwq1Tj8tWP-133" value="9" style="strokeColor=none;fillColor=none;fontColor=#000000;fontSize=16" parent="IYKv4-9v9WQwq1Tj8tWP-113" vertex="1">
          <mxGeometry x="78.125" y="68.8198857142857" width="31.250000000000004" height="20.241142857142858" as="geometry" />
        </mxCell>
        <mxCell id="IYKv4-9v9WQwq1Tj8tWP-134" value="10" style="strokeColor=none;fillColor=none;fontColor=#0057D8;fontSize=16;fontStyle=4" parent="IYKv4-9v9WQwq1Tj8tWP-113" vertex="1">
          <mxGeometry x="109.37499999999999" y="68.8198857142857" width="31.250000000000004" height="20.241142857142858" as="geometry" />
        </mxCell>
        <mxCell id="IYKv4-9v9WQwq1Tj8tWP-135" value="11" style="strokeColor=none;fillColor=#ECEDF0;fontColor=#000000;fontSize=16;rounded=1;arcSize=10" parent="IYKv4-9v9WQwq1Tj8tWP-113" vertex="1">
          <mxGeometry x="140.625" y="68.8198857142857" width="31.250000000000004" height="20.241142857142858" as="geometry" />
        </mxCell>
        <mxCell id="IYKv4-9v9WQwq1Tj8tWP-136" value="12" style="strokeColor=none;fillColor=none;fontColor=#000000;fontSize=16" parent="IYKv4-9v9WQwq1Tj8tWP-113" vertex="1">
          <mxGeometry x="171.875" y="68.8198857142857" width="31.250000000000004" height="20.241142857142858" as="geometry" />
        </mxCell>
        <mxCell id="IYKv4-9v9WQwq1Tj8tWP-137" value="13" style="strokeColor=none;fillColor=none;fontColor=#000000;fontSize=16" parent="IYKv4-9v9WQwq1Tj8tWP-113" vertex="1">
          <mxGeometry x="203.12500000000003" y="68.8198857142857" width="31.250000000000004" height="20.241142857142858" as="geometry" />
        </mxCell>
        <mxCell id="IYKv4-9v9WQwq1Tj8tWP-138" value="14" style="strokeColor=none;fillColor=none;fontColor=#000000;fontSize=16" parent="IYKv4-9v9WQwq1Tj8tWP-113" vertex="1">
          <mxGeometry x="15.625000000000002" y="89.06102857142858" width="31.250000000000004" height="20.241142857142858" as="geometry" />
        </mxCell>
        <mxCell id="IYKv4-9v9WQwq1Tj8tWP-139" value="15" style="strokeColor=none;fillColor=none;fontColor=#000000;fontSize=16" parent="IYKv4-9v9WQwq1Tj8tWP-113" vertex="1">
          <mxGeometry x="46.875" y="89.06102857142858" width="31.250000000000004" height="20.241142857142858" as="geometry" />
        </mxCell>
        <mxCell id="IYKv4-9v9WQwq1Tj8tWP-140" value="16" style="strokeColor=none;fillColor=none;fontColor=#000000;fontSize=16" parent="IYKv4-9v9WQwq1Tj8tWP-113" vertex="1">
          <mxGeometry x="78.125" y="89.06102857142858" width="31.250000000000004" height="20.241142857142858" as="geometry" />
        </mxCell>
        <mxCell id="IYKv4-9v9WQwq1Tj8tWP-141" value="17" style="strokeColor=none;fillColor=none;fontColor=#000000;fontSize=16" parent="IYKv4-9v9WQwq1Tj8tWP-113" vertex="1">
          <mxGeometry x="109.37499999999999" y="89.06102857142858" width="31.250000000000004" height="20.241142857142858" as="geometry" />
        </mxCell>
        <mxCell id="IYKv4-9v9WQwq1Tj8tWP-142" value="18" style="strokeColor=none;fillColor=none;fontColor=#000000;fontSize=16" parent="IYKv4-9v9WQwq1Tj8tWP-113" vertex="1">
          <mxGeometry x="140.625" y="89.06102857142858" width="31.250000000000004" height="20.241142857142858" as="geometry" />
        </mxCell>
        <mxCell id="IYKv4-9v9WQwq1Tj8tWP-143" value="19" style="strokeColor=none;fillColor=none;fontColor=#000000;fontSize=16" parent="IYKv4-9v9WQwq1Tj8tWP-113" vertex="1">
          <mxGeometry x="171.875" y="89.06102857142858" width="31.250000000000004" height="20.241142857142858" as="geometry" />
        </mxCell>
        <mxCell id="IYKv4-9v9WQwq1Tj8tWP-144" value="20" style="strokeColor=none;fillColor=none;fontColor=#000000;fontSize=16" parent="IYKv4-9v9WQwq1Tj8tWP-113" vertex="1">
          <mxGeometry x="203.12500000000003" y="89.06102857142858" width="31.250000000000004" height="20.241142857142858" as="geometry" />
        </mxCell>
        <mxCell id="IYKv4-9v9WQwq1Tj8tWP-145" value="21" style="strokeColor=none;fillColor=none;fontColor=#000000;fontSize=16" parent="IYKv4-9v9WQwq1Tj8tWP-113" vertex="1">
          <mxGeometry x="15.625000000000002" y="109.30217142857143" width="31.250000000000004" height="20.241142857142858" as="geometry" />
        </mxCell>
        <mxCell id="IYKv4-9v9WQwq1Tj8tWP-146" value="22" style="strokeColor=none;fillColor=none;fontColor=#000000;fontSize=16" parent="IYKv4-9v9WQwq1Tj8tWP-113" vertex="1">
          <mxGeometry x="46.875" y="109.30217142857143" width="31.250000000000004" height="20.241142857142858" as="geometry" />
        </mxCell>
        <mxCell id="IYKv4-9v9WQwq1Tj8tWP-147" value="23" style="strokeColor=none;fillColor=none;fontColor=#999999;fontSize=16" parent="IYKv4-9v9WQwq1Tj8tWP-113" vertex="1">
          <mxGeometry x="78.125" y="109.30217142857143" width="31.250000000000004" height="20.241142857142858" as="geometry" />
        </mxCell>
        <mxCell id="IYKv4-9v9WQwq1Tj8tWP-148" value="24" style="strokeColor=none;fillColor=none;fontColor=#000000;fontSize=16" parent="IYKv4-9v9WQwq1Tj8tWP-113" vertex="1">
          <mxGeometry x="109.37499999999999" y="109.30217142857143" width="31.250000000000004" height="20.241142857142858" as="geometry" />
        </mxCell>
        <mxCell id="IYKv4-9v9WQwq1Tj8tWP-149" value="25" style="strokeColor=none;fillColor=none;fontColor=#000000;fontSize=16" parent="IYKv4-9v9WQwq1Tj8tWP-113" vertex="1">
          <mxGeometry x="140.625" y="109.30217142857143" width="31.250000000000004" height="20.241142857142858" as="geometry" />
        </mxCell>
        <mxCell id="IYKv4-9v9WQwq1Tj8tWP-150" value="26" style="strokeColor=none;fillColor=none;fontColor=#000000;fontSize=16" parent="IYKv4-9v9WQwq1Tj8tWP-113" vertex="1">
          <mxGeometry x="171.875" y="109.30217142857143" width="31.250000000000004" height="20.241142857142858" as="geometry" />
        </mxCell>
        <mxCell id="IYKv4-9v9WQwq1Tj8tWP-151" value="27" style="strokeColor=none;fillColor=none;fontColor=#000000;fontSize=16" parent="IYKv4-9v9WQwq1Tj8tWP-113" vertex="1">
          <mxGeometry x="203.12500000000003" y="109.30217142857143" width="31.250000000000004" height="20.241142857142858" as="geometry" />
        </mxCell>
        <mxCell id="IYKv4-9v9WQwq1Tj8tWP-152" value="28" style="strokeColor=none;fillColor=none;fontColor=#000000;fontSize=16" parent="IYKv4-9v9WQwq1Tj8tWP-113" vertex="1">
          <mxGeometry x="15.625000000000002" y="129.54331428571427" width="31.250000000000004" height="20.241142857142858" as="geometry" />
        </mxCell>
        <mxCell id="IYKv4-9v9WQwq1Tj8tWP-153" value="29" style="strokeColor=none;fillColor=none;fontColor=#000000;fontSize=16" parent="IYKv4-9v9WQwq1Tj8tWP-113" vertex="1">
          <mxGeometry x="46.875" y="129.54331428571427" width="31.250000000000004" height="20.241142857142858" as="geometry" />
        </mxCell>
        <mxCell id="IYKv4-9v9WQwq1Tj8tWP-154" value="30" style="strokeColor=none;fillColor=none;fontColor=#000000;fontSize=16" parent="IYKv4-9v9WQwq1Tj8tWP-113" vertex="1">
          <mxGeometry x="78.125" y="129.54331428571427" width="31.250000000000004" height="20.241142857142858" as="geometry" />
        </mxCell>
        <mxCell id="IYKv4-9v9WQwq1Tj8tWP-155" value="1" style="strokeColor=none;fillColor=none;fontColor=#999999;fontSize=16" parent="IYKv4-9v9WQwq1Tj8tWP-113" vertex="1">
          <mxGeometry x="109.37499999999999" y="129.54331428571427" width="31.250000000000004" height="20.241142857142858" as="geometry" />
        </mxCell>
        <mxCell id="IYKv4-9v9WQwq1Tj8tWP-156" value="2" style="strokeColor=none;fillColor=none;fontColor=#999999;fontSize=16" parent="IYKv4-9v9WQwq1Tj8tWP-113" vertex="1">
          <mxGeometry x="140.625" y="129.54331428571427" width="31.250000000000004" height="20.241142857142858" as="geometry" />
        </mxCell>
        <mxCell id="IYKv4-9v9WQwq1Tj8tWP-157" value="3" style="strokeColor=none;fillColor=none;fontColor=#999999;fontSize=16" parent="IYKv4-9v9WQwq1Tj8tWP-113" vertex="1">
          <mxGeometry x="171.875" y="129.54331428571427" width="31.250000000000004" height="20.241142857142858" as="geometry" />
        </mxCell>
        <mxCell id="IYKv4-9v9WQwq1Tj8tWP-158" value="4" style="strokeColor=none;fillColor=none;fontColor=#999999;fontSize=16" parent="IYKv4-9v9WQwq1Tj8tWP-113" vertex="1">
          <mxGeometry x="203.12500000000003" y="129.54331428571427" width="31.250000000000004" height="20.241142857142858" as="geometry" />
        </mxCell>
        <mxCell id="IYKv4-9v9WQwq1Tj8tWP-159" value="5" style="strokeColor=none;fillColor=none;fontColor=#999999;fontSize=16" parent="IYKv4-9v9WQwq1Tj8tWP-113" vertex="1">
          <mxGeometry x="15.625000000000002" y="149.78445714285715" width="31.250000000000004" height="20.241142857142858" as="geometry" />
        </mxCell>
        <mxCell id="IYKv4-9v9WQwq1Tj8tWP-160" value="6" style="strokeColor=none;fillColor=none;fontColor=#999999;fontSize=16" parent="IYKv4-9v9WQwq1Tj8tWP-113" vertex="1">
          <mxGeometry x="46.875" y="149.78445714285715" width="31.250000000000004" height="20.241142857142858" as="geometry" />
        </mxCell>
        <mxCell id="IYKv4-9v9WQwq1Tj8tWP-161" value="7" style="strokeColor=none;fillColor=none;fontColor=#999999;fontSize=16" parent="IYKv4-9v9WQwq1Tj8tWP-113" vertex="1">
          <mxGeometry x="78.125" y="149.78445714285715" width="31.250000000000004" height="20.241142857142858" as="geometry" />
        </mxCell>
        <mxCell id="IYKv4-9v9WQwq1Tj8tWP-162" value="8" style="strokeColor=none;fillColor=none;fontColor=#999999;fontSize=16" parent="IYKv4-9v9WQwq1Tj8tWP-113" vertex="1">
          <mxGeometry x="109.37499999999999" y="149.78445714285715" width="31.250000000000004" height="20.241142857142858" as="geometry" />
        </mxCell>
        <mxCell id="IYKv4-9v9WQwq1Tj8tWP-163" value="9" style="strokeColor=none;fillColor=none;fontColor=#999999;fontSize=16" parent="IYKv4-9v9WQwq1Tj8tWP-113" vertex="1">
          <mxGeometry x="140.625" y="149.78445714285715" width="31.250000000000004" height="20.241142857142858" as="geometry" />
        </mxCell>
        <mxCell id="IYKv4-9v9WQwq1Tj8tWP-164" value="10" style="strokeColor=none;fillColor=none;fontColor=#999999;fontSize=16" parent="IYKv4-9v9WQwq1Tj8tWP-113" vertex="1">
          <mxGeometry x="171.875" y="149.78445714285715" width="31.250000000000004" height="20.241142857142858" as="geometry" />
        </mxCell>
        <mxCell id="IYKv4-9v9WQwq1Tj8tWP-165" value="11" style="strokeColor=none;fillColor=none;fontColor=#999999;fontSize=16" parent="IYKv4-9v9WQwq1Tj8tWP-113" vertex="1">
          <mxGeometry x="203.12500000000003" y="149.78445714285715" width="31.250000000000004" height="20.241142857142858" as="geometry" />
        </mxCell>
        <mxCell id="IYKv4-9v9WQwq1Tj8tWP-167" style="edgeStyle=orthogonalEdgeStyle;rounded=0;orthogonalLoop=1;jettySize=auto;html=1;exitX=1;exitY=0;exitDx=0;exitDy=0;entryX=1;entryY=0.25;entryDx=0;entryDy=0;" parent="IYKv4-9v9WQwq1Tj8tWP-113" source="IYKv4-9v9WQwq1Tj8tWP-116" target="IYKv4-9v9WQwq1Tj8tWP-116" edge="1">
          <mxGeometry relative="1" as="geometry" />
        </mxCell>
        <mxCell id="IYKv4-9v9WQwq1Tj8tWP-185" value="Типы сообщений. Колонка необходима для фильтрации сообщений. Пункты будут добавляться на стороне фронта по мере необходимости." style="rounded=0;whiteSpace=wrap;html=1;" parent="1" vertex="1">
          <mxGeometry x="741" y="490" width="155" height="98.56" as="geometry" />
        </mxCell>
        <mxCell id="IYKv4-9v9WQwq1Tj8tWP-186" value="" style="edgeStyle=elbowEdgeStyle;elbow=horizontal;endArrow=classic;html=1;curved=0;rounded=0;endSize=8;startSize=8;exitX=1;exitY=0.5;exitDx=0;exitDy=0;entryX=0;entryY=0.5;entryDx=0;entryDy=0;" parent="1" source="IYKv4-9v9WQwq1Tj8tWP-111" target="IYKv4-9v9WQwq1Tj8tWP-187" edge="1">
          <mxGeometry width="50" height="50" relative="1" as="geometry">
            <mxPoint x="550.9999999999995" y="803.6750000000002" as="sourcePoint" />
            <mxPoint x="731" y="680" as="targetPoint" />
            <Array as="points">
              <mxPoint x="651" y="720" />
            </Array>
          </mxGeometry>
        </mxCell>
        <mxCell id="IYKv4-9v9WQwq1Tj8tWP-187" value="Дата сообщений. Поле для фильтрации сообщений по дате. Кнопка календаря справа должна выводить графический календарь для удобного выбора необходимой даты." style="rounded=0;whiteSpace=wrap;html=1;" parent="1" vertex="1">
          <mxGeometry x="741" y="605.9099999999999" width="195" height="100" as="geometry" />
        </mxCell>
        <mxCell id="IYKv4-9v9WQwq1Tj8tWP-184" value="" style="edgeStyle=elbowEdgeStyle;elbow=horizontal;endArrow=classic;html=1;curved=0;rounded=0;endSize=8;startSize=8;exitX=0.1;exitY=0.5;exitDx=0;exitDy=0;exitPerimeter=0;entryX=0;entryY=0.5;entryDx=0;entryDy=0;" parent="1" source="IYKv4-9v9WQwq1Tj8tWP-188" target="IYKv4-9v9WQwq1Tj8tWP-185" edge="1">
          <mxGeometry width="50" height="50" relative="1" as="geometry">
            <mxPoint x="631" y="630" as="sourcePoint" />
            <mxPoint x="761" y="500" as="targetPoint" />
            <Array as="points">
              <mxPoint x="651" y="580" />
              <mxPoint x="641" y="600" />
            </Array>
          </mxGeometry>
        </mxCell>
        <mxCell id="IYKv4-9v9WQwq1Tj8tWP-190" value="" style="endArrow=classic;html=1;rounded=0;exitX=1;exitY=0.5;exitDx=0;exitDy=0;entryX=-0.015;entryY=0.43;entryDx=0;entryDy=0;entryPerimeter=0;" parent="1" source="IYKv4-9v9WQwq1Tj8tWP-187" target="IYKv4-9v9WQwq1Tj8tWP-113" edge="1">
          <mxGeometry width="50" height="50" relative="1" as="geometry">
            <mxPoint x="991" y="740" as="sourcePoint" />
            <mxPoint x="1051" y="680" as="targetPoint" />
          </mxGeometry>
        </mxCell>
        <mxCell id="IYKv4-9v9WQwq1Tj8tWP-191" value="" style="edgeStyle=elbowEdgeStyle;elbow=horizontal;endArrow=classic;html=1;curved=0;rounded=0;endSize=8;startSize=8;exitX=1;exitY=0.5;exitDx=0;exitDy=0;entryX=0;entryY=0.5;entryDx=0;entryDy=0;" parent="1" target="IYKv4-9v9WQwq1Tj8tWP-192" edge="1">
          <mxGeometry width="50" height="50" relative="1" as="geometry">
            <mxPoint x="581" y="834" as="sourcePoint" />
            <mxPoint x="731" y="750" as="targetPoint" />
            <Array as="points">
              <mxPoint x="651" y="790" />
            </Array>
          </mxGeometry>
        </mxCell>
        <mxCell id="IYKv4-9v9WQwq1Tj8tWP-192" value="Сообщение. Поле для фильтрации сообщений по типам. Здесь должен быть выпадающий список. Какие Варианты будут приходить с базы данных. Зависит напрямую от выбранных типов сообщений." style="rounded=0;whiteSpace=wrap;html=1;" parent="1" vertex="1">
          <mxGeometry x="741" y="728.56" width="170" height="121.44" as="geometry" />
        </mxCell>
        <mxCell id="IYKv4-9v9WQwq1Tj8tWP-193" value="" style="edgeStyle=elbowEdgeStyle;elbow=horizontal;endArrow=classic;html=1;curved=0;rounded=0;endSize=8;startSize=8;exitX=1;exitY=0.5;exitDx=0;exitDy=0;entryX=0;entryY=0.5;entryDx=0;entryDy=0;" parent="1" source="IYKv4-9v9WQwq1Tj8tWP-106" target="IYKv4-9v9WQwq1Tj8tWP-194" edge="1">
          <mxGeometry width="50" height="50" relative="1" as="geometry">
            <mxPoint x="571" y="974" as="sourcePoint" />
            <mxPoint x="721" y="890" as="targetPoint" />
            <Array as="points">
              <mxPoint x="661" y="910" />
            </Array>
          </mxGeometry>
        </mxCell>
        <mxCell id="IYKv4-9v9WQwq1Tj8tWP-194" value="Кнопка, которая должна применить настройки. При нажатии происходит обновление окна для вывода сообщений." style="rounded=0;whiteSpace=wrap;html=1;" parent="1" vertex="1">
          <mxGeometry x="739.75" y="880" width="172.5" height="80" as="geometry" />
        </mxCell>
        <mxCell id="IYKv4-9v9WQwq1Tj8tWP-196" value="" style="edgeStyle=elbowEdgeStyle;elbow=horizontal;endArrow=classic;html=1;curved=0;rounded=0;endSize=8;startSize=8;exitX=1;exitY=0.5;exitDx=0;exitDy=0;entryX=0;entryY=0.5;entryDx=0;entryDy=0;" parent="1" source="IYKv4-9v9WQwq1Tj8tWP-195" target="IYKv4-9v9WQwq1Tj8tWP-197" edge="1">
          <mxGeometry width="50" height="50" relative="1" as="geometry">
            <mxPoint x="590" y="1010" as="sourcePoint" />
            <mxPoint x="721" y="1005" as="targetPoint" />
            <Array as="points">
              <mxPoint x="651" y="1000" />
            </Array>
          </mxGeometry>
        </mxCell>
        <mxCell id="IYKv4-9v9WQwq1Tj8tWP-197" value="Кнопка, которая экспортирует все сообщения в текстовой файл и сохраняет пользователю на компьютер." style="rounded=0;whiteSpace=wrap;html=1;" parent="1" vertex="1">
          <mxGeometry x="739.75" y="980" width="172.5" height="60" as="geometry" />
        </mxCell>
        <mxCell id="IYKv4-9v9WQwq1Tj8tWP-332" value="" style="endArrow=classic;html=1;rounded=0;exitX=1;exitY=0.5;exitDx=0;exitDy=0;" parent="1" source="IYKv4-9v9WQwq1Tj8tWP-197" edge="1">
          <mxGeometry width="50" height="50" relative="1" as="geometry">
            <mxPoint x="1051" y="1000" as="sourcePoint" />
            <mxPoint x="1001" y="1010" as="targetPoint" />
          </mxGeometry>
        </mxCell>
        <mxCell id="IYKv4-9v9WQwq1Tj8tWP-333" value="В случае, если токен не присутствует - экспорт должен быть не доступен (кнопка полупрозрачная и не кликабельная)." style="rounded=0;whiteSpace=wrap;html=1;" parent="1" vertex="1">
          <mxGeometry x="1001" y="965" width="160" height="90" as="geometry" />
        </mxCell>
        <mxCell id="IYKv4-9v9WQwq1Tj8tWP-47" value="Page 1" style="strokeWidth=1;shadow=0;dashed=0;align=center;html=1;shape=mxgraph.mockup.containers.anchor;fontSize=17;fontColor=#666666;align=left;whiteSpace=wrap;" parent="1" vertex="1">
          <mxGeometry x="-649" y="272" width="110" height="26" as="geometry" />
        </mxCell>
        <mxCell id="IYKv4-9v9WQwq1Tj8tWP-48" value="https://www.hostname/admin/key/panel" style="strokeWidth=1;shadow=0;dashed=0;align=center;html=1;shape=mxgraph.mockup.containers.anchor;rSize=0;fontSize=17;fontColor=#666666;align=left;" parent="1" vertex="1">
          <mxGeometry x="-579" y="320" width="470" height="26" as="geometry" />
        </mxCell>
        <mxCell id="IYKv4-9v9WQwq1Tj8tWP-58" value="Fr45hnddry5634gsGbrn45#feraqwT253B" style="html=1;shadow=0;dashed=0;shape=mxgraph.bootstrap.rrect;rSize=5;strokeColor=#CED4DA;html=1;whiteSpace=wrap;fillColor=#FFFFFF;fontColor=#7D868C;align=left;spacingLeft=0;spacing=15;fontSize=14;" parent="1" vertex="1">
          <mxGeometry x="211" y="380" width="388" height="20" as="geometry" />
        </mxCell>
        <mxCell id="IYKv4-9v9WQwq1Tj8tWP-59" value="ACTIVATE" style="html=1;shadow=0;dashed=0;shape=mxgraph.bootstrap.rightButton;strokeColor=#333333;fillColor=#009900;rSize=5;perimeter=none;whiteSpace=wrap;resizeHeight=1;fontSize=14;labelBackgroundColor=none;" parent="IYKv4-9v9WQwq1Tj8tWP-58" vertex="1">
          <mxGeometry x="1" width="81" height="20" relative="1" as="geometry">
            <mxPoint x="-81" as="offset" />
          </mxGeometry>
        </mxCell>
        <mxCell id="IYKv4-9v9WQwq1Tj8tWP-63" value="" style="line;strokeWidth=2;html=1;textOpacity=20;" parent="1" vertex="1">
          <mxGeometry x="-699" y="410" width="1298" height="10" as="geometry" />
        </mxCell>
        <mxCell id="IYKv4-9v9WQwq1Tj8tWP-64" value="&lt;font style=&quot;font-size: 15px;&quot;&gt;Administration panel | User: username&lt;/font&gt;" style="text;html=1;align=left;verticalAlign=middle;whiteSpace=wrap;rounded=0;" parent="1" vertex="1">
          <mxGeometry x="-659" y="380" width="320" height="30" as="geometry" />
        </mxCell>
        <mxCell id="IYKv4-9v9WQwq1Tj8tWP-83" value="" style="group" parent="1" vertex="1" connectable="0">
          <mxGeometry x="-679" y="500" width="1290" height="680" as="geometry" />
        </mxCell>
        <mxCell id="IYKv4-9v9WQwq1Tj8tWP-71" value="" style="rounded=1;whiteSpace=wrap;html=1;absoluteArcSize=1;arcSize=14;strokeWidth=2;" parent="IYKv4-9v9WQwq1Tj8tWP-83" vertex="1">
          <mxGeometry width="1039.7727272727275" height="460" as="geometry" />
        </mxCell>
        <mxCell id="IYKv4-9v9WQwq1Tj8tWP-72" value="LOGS" style="text;html=1;align=center;verticalAlign=middle;whiteSpace=wrap;rounded=0;" parent="IYKv4-9v9WQwq1Tj8tWP-83" vertex="1">
          <mxGeometry width="150" height="34.716981132075475" as="geometry" />
        </mxCell>
        <mxCell id="IYKv4-9v9WQwq1Tj8tWP-74" value="" style="verticalLabelPosition=bottom;verticalAlign=top;html=1;shadow=0;dashed=0;strokeWidth=1;shape=mxgraph.android.quickscroll3;dy=0.499;fillColor=#33b5e5;strokeColor=#66D5F5;" parent="IYKv4-9v9WQwq1Tj8tWP-83" vertex="1">
          <mxGeometry x="1022.7272727272727" y="43.39622641509434" width="10.227272727272728" height="407.9245283018869" as="geometry" />
        </mxCell>
        <mxCell id="IYKv4-9v9WQwq1Tj8tWP-73" value="" style="endArrow=none;dashed=1;html=1;dashPattern=1 3;strokeWidth=2;rounded=0;exitX=0.008;exitY=0.099;exitDx=0;exitDy=0;exitPerimeter=0;" parent="IYKv4-9v9WQwq1Tj8tWP-83" edge="1">
          <mxGeometry width="50" height="50" relative="1" as="geometry">
            <mxPoint x="12.644428152492743" y="34.716981132075624" as="sourcePoint" />
            <mxPoint x="1027.1370967741934" y="34.734693877551024" as="targetPoint" />
          </mxGeometry>
        </mxCell>
        <mxCell id="IYKv4-9v9WQwq1Tj8tWP-174" value="Это окно для вывода сообщений. Оно должно выводить сообщения об ошибках или любые иные сообщения." style="whiteSpace=wrap;html=1;shape=mxgraph.basic.rectCallout;dx=30;dy=15;boundedLbl=1;" parent="IYKv4-9v9WQwq1Tj8tWP-83" vertex="1">
          <mxGeometry x="570" y="140" width="250" height="70" as="geometry" />
        </mxCell>
        <mxCell id="IYKv4-9v9WQwq1Tj8tWP-99" value="" style="group" parent="1" vertex="1" connectable="0">
          <mxGeometry x="-675" y="440" width="1230" height="40" as="geometry" />
        </mxCell>
        <mxCell id="IYKv4-9v9WQwq1Tj8tWP-70" value="LOGS" style="strokeWidth=1;shadow=0;dashed=0;align=center;html=1;shape=mxgraph.mockup.buttons.button;strokeColor=#666666;fontColor=#ffffff;mainText=;buttonStyle=round;fontSize=17;fontStyle=1;fillColor=#008cff;whiteSpace=wrap;" parent="IYKv4-9v9WQwq1Tj8tWP-99" vertex="1">
          <mxGeometry width="180" height="40" as="geometry" />
        </mxCell>
        <mxCell id="IYKv4-9v9WQwq1Tj8tWP-65" value="STATISTICS" style="strokeWidth=1;shadow=0;dashed=0;align=center;html=1;shape=mxgraph.mockup.buttons.button;strokeColor=#666666;fontColor=#000000;mainText=;buttonStyle=round;fontSize=17;fontStyle=1;fillColor=#DAE8FC;whiteSpace=wrap;" parent="IYKv4-9v9WQwq1Tj8tWP-99" vertex="1">
          <mxGeometry x="210" width="180" height="40" as="geometry" />
        </mxCell>
        <mxCell id="IYKv4-9v9WQwq1Tj8tWP-66" value="DASHBOADS BASE" style="strokeWidth=1;shadow=0;dashed=0;align=center;html=1;shape=mxgraph.mockup.buttons.button;strokeColor=#666666;fontColor=#000000;mainText=;buttonStyle=round;fontSize=17;fontStyle=1;fillColor=#DAE8FC;whiteSpace=wrap;" parent="IYKv4-9v9WQwq1Tj8tWP-99" vertex="1">
          <mxGeometry x="420" width="180" height="40" as="geometry" />
        </mxCell>
        <mxCell id="IYKv4-9v9WQwq1Tj8tWP-67" value="USERS" style="strokeWidth=1;shadow=0;dashed=0;align=center;html=1;shape=mxgraph.mockup.buttons.button;strokeColor=#666666;fontColor=#000000;mainText=;buttonStyle=round;fontSize=17;fontStyle=1;fillColor=#DAE8FC;whiteSpace=wrap;" parent="IYKv4-9v9WQwq1Tj8tWP-99" vertex="1">
          <mxGeometry x="646" width="180" height="40" as="geometry" />
        </mxCell>
        <mxCell id="IYKv4-9v9WQwq1Tj8tWP-68" value="POSTS" style="strokeWidth=1;shadow=0;dashed=0;align=center;html=1;shape=mxgraph.mockup.buttons.button;strokeColor=#666666;fontColor=#000000;mainText=;buttonStyle=round;fontSize=17;fontStyle=1;fillColor=#DAE8FC;whiteSpace=wrap;" parent="IYKv4-9v9WQwq1Tj8tWP-99" vertex="1">
          <mxGeometry x="856" width="180" height="40" as="geometry" />
        </mxCell>
        <mxCell id="IYKv4-9v9WQwq1Tj8tWP-69" value="STATISTICS" style="strokeWidth=1;shadow=0;dashed=0;align=center;html=1;shape=mxgraph.mockup.buttons.button;strokeColor=#666666;fontColor=#000000;mainText=;buttonStyle=round;fontSize=17;fontStyle=1;fillColor=#DAE8FC;whiteSpace=wrap;" parent="IYKv4-9v9WQwq1Tj8tWP-99" vertex="1">
          <mxGeometry x="1066" width="180" height="40" as="geometry" />
        </mxCell>
        <mxCell id="IYKv4-9v9WQwq1Tj8tWP-101" value="Type output message:" style="fillColor=none;strokeColor=none;fontSize=12;fontStyle=1;align=left;fontColor=#000000;sketch=0;hachureGap=4;pointerEvents=0;fontFamily=Times New Roman;" parent="1" vertex="1">
          <mxGeometry x="380" y="540" width="200" height="20.4" as="geometry" />
        </mxCell>
        <mxCell id="IYKv4-9v9WQwq1Tj8tWP-102" value="&lt;font face=&quot;Times New Roman&quot;&gt;INFO&lt;/font&gt;" style="rounded=1;fillColor=#F0F2F5;strokeColor=#D8DCE3;fontColor=#000000;align=left;verticalAlign=middle;fontStyle=1;fontSize=12;labelPosition=right;verticalLabelPosition=middle;spacingLeft=10;html=1;shadow=0;dashed=0;sketch=0;hachureGap=4;pointerEvents=0;fontFamily=Architects Daughter;fontSource=https%3A%2F%2Ffonts.googleapis.com%2Fcss%3Ffamily%3DArchitects%2BDaughter;" parent="1" vertex="1">
          <mxGeometry x="391" y="569.996936416185" width="16.8" height="18.24277456647399" as="geometry" />
        </mxCell>
        <mxCell id="IYKv4-9v9WQwq1Tj8tWP-103" value="&lt;font face=&quot;Times New Roman&quot;&gt;ERROR&lt;/font&gt;" style="html=1;shadow=0;dashed=0;shape=mxgraph.atlassian.checkbox_2;fillColor=#0057D8;strokeColor=none;fontColor=#000000;align=left;verticalAlign=middle;fontStyle=1;fontSize=12;labelPosition=right;verticalLabelPosition=middle;spacingLeft=10;sketch=0;hachureGap=4;pointerEvents=0;fontFamily=Architects Daughter;fontSource=https%3A%2F%2Ffonts.googleapis.com%2Fcss%3Ffamily%3DArchitects%2BDaughter;" parent="1" vertex="1">
          <mxGeometry x="391" y="608.0027167630058" width="16.8" height="18.24277456647399" as="geometry" />
        </mxCell>
        <mxCell id="IYKv4-9v9WQwq1Tj8tWP-104" value="&lt;font face=&quot;Times New Roman&quot;&gt;WARNING&lt;/font&gt;" style="html=1;shadow=0;dashed=0;shape=mxgraph.atlassian.checkbox_2;fillColor=#0057D8;strokeColor=none;fontColor=#000000;align=left;verticalAlign=middle;fontStyle=1;fontSize=12;labelPosition=right;verticalLabelPosition=middle;spacingLeft=10;sketch=0;hachureGap=4;pointerEvents=0;fontFamily=Architects Daughter;fontSource=https%3A%2F%2Ffonts.googleapis.com%2Fcss%3Ffamily%3DArchitects%2BDaughter;" parent="1" vertex="1">
          <mxGeometry x="391" y="646.0084971098265" width="16.8" height="18.24277456647399" as="geometry" />
        </mxCell>
        <mxCell id="IYKv4-9v9WQwq1Tj8tWP-105" value="&lt;font face=&quot;Times New Roman&quot;&gt;ADMIN&lt;/font&gt;" style="rounded=1;fillColor=#F0F2F5;strokeColor=#D8DCE3;fontColor=#000000;align=left;verticalAlign=middle;fontStyle=1;fontSize=12;labelPosition=right;verticalLabelPosition=middle;spacingLeft=10;html=1;shadow=0;dashed=0;sketch=0;hachureGap=4;pointerEvents=0;fontFamily=Architects Daughter;fontSource=https%3A%2F%2Ffonts.googleapis.com%2Fcss%3Ffamily%3DArchitects%2BDaughter;" parent="1" vertex="1">
          <mxGeometry x="391" y="684.0142774566475" width="16.8" height="18.24277456647399" as="geometry" />
        </mxCell>
        <mxCell id="IYKv4-9v9WQwq1Tj8tWP-106" value="&lt;font face=&quot;Times New Roman&quot;&gt;ACCEPT&lt;/font&gt;" style="rounded=1;fillColor=#0057D8;strokeColor=none;fontColor=#ffffff;align=center;verticalAlign=middle;fontStyle=0;fontSize=14;html=1;shadow=0;dashed=0;sketch=0;hachureGap=4;pointerEvents=0;fontFamily=Architects Daughter;fontSource=https%3A%2F%2Ffonts.googleapis.com%2Fcss%3Ffamily%3DArchitects%2BDaughter;" parent="1" vertex="1">
          <mxGeometry x="380" y="880" width="210" height="30" as="geometry" />
        </mxCell>
        <mxCell id="IYKv4-9v9WQwq1Tj8tWP-109" value="CONFIGURATIONS:" style="text;strokeColor=none;fillColor=none;html=1;fontSize=24;fontStyle=1;verticalAlign=middle;align=center;" parent="1" vertex="1">
          <mxGeometry x="397.79999999999995" y="500" width="183.2" height="40" as="geometry" />
        </mxCell>
        <mxCell id="IYKv4-9v9WQwq1Tj8tWP-168" value="Message Text" style="rounded=1;arcSize=9;fillColor=#ffffff;align=left;spacingLeft=5;strokeColor=#DAE8FC;html=1;strokeWidth=2;fontColor=#253858;fontSize=12" parent="1" vertex="1">
          <mxGeometry x="389" y="820" width="192" height="27.35" as="geometry" />
        </mxCell>
        <mxCell id="IYKv4-9v9WQwq1Tj8tWP-170" value="&lt;font color=&quot;#000000&quot;&gt;Message:&lt;/font&gt;" style="fillColor=none;strokeColor=none;html=1;fontSize=11;fontStyle=1;align=left;fontColor=#FFFFFF;fontStyle=1;fontSize=11" parent="1" vertex="1">
          <mxGeometry x="380" y="800" width="165" height="10.120481927710843" as="geometry" />
        </mxCell>
        <mxCell id="IYKv4-9v9WQwq1Tj8tWP-111" value="Today" style="rounded=1;arcSize=9;fillColor=#ffffff;align=left;spacingLeft=5;strokeColor=#DAE8FC;html=1;strokeWidth=2;fontColor=#253858;fontSize=12" parent="1" vertex="1">
          <mxGeometry x="389" y="750" width="192" height="27.35" as="geometry" />
        </mxCell>
        <mxCell id="IYKv4-9v9WQwq1Tj8tWP-112" value="" style="shape=mxgraph.gmdl.calendar;fillColor=#253858;strokeColor=none" parent="IYKv4-9v9WQwq1Tj8tWP-111" vertex="1">
          <mxGeometry x="1" y="0.5" width="18" height="18" relative="1" as="geometry">
            <mxPoint x="-24" y="-8" as="offset" />
          </mxGeometry>
        </mxCell>
        <mxCell id="IYKv4-9v9WQwq1Tj8tWP-171" value="" style="strokeWidth=2;html=1;shape=mxgraph.flowchart.merge_or_storage;whiteSpace=wrap;" parent="1" vertex="1">
          <mxGeometry x="555" y="826.6799999999998" width="16" height="14" as="geometry" />
        </mxCell>
        <mxCell id="IYKv4-9v9WQwq1Tj8tWP-188" value="" style="shape=curlyBracket;whiteSpace=wrap;html=1;rounded=1;flipH=1;labelPosition=right;verticalLabelPosition=middle;align=left;verticalAlign=middle;" parent="1" vertex="1">
          <mxGeometry x="501" y="570" width="20" height="130" as="geometry" />
        </mxCell>
        <mxCell id="IYKv4-9v9WQwq1Tj8tWP-195" value="&lt;font face=&quot;Times New Roman&quot;&gt;EXPORT&lt;/font&gt;" style="rounded=1;fillColor=#0057D8;strokeColor=none;fontColor=#ffffff;align=center;verticalAlign=middle;fontStyle=0;fontSize=14;html=1;shadow=0;dashed=0;sketch=0;hachureGap=4;pointerEvents=0;fontFamily=Architects Daughter;fontSource=https%3A%2F%2Ffonts.googleapis.com%2Fcss%3Ffamily%3DArchitects%2BDaughter;" parent="1" vertex="1">
          <mxGeometry x="380" y="920" width="210" height="30" as="geometry" />
        </mxCell>
        <mxCell id="IYKv4-9v9WQwq1Tj8tWP-381" value="&lt;font color=&quot;#000000&quot;&gt;Date:&lt;/font&gt;" style="fillColor=none;strokeColor=none;html=1;fontSize=11;fontStyle=1;align=left;fontColor=#FFFFFF;fontStyle=1;fontSize=11" parent="1" vertex="1">
          <mxGeometry x="380" y="728.56" width="165" height="10.120481927710843" as="geometry" />
        </mxCell>
        <mxCell id="LnX6BK-S7mx_78NqDa5w-2" value="" style="strokeWidth=1;shadow=0;dashed=0;align=left;html=1;shape=mxgraph.mockup.containers.browserWindow;rSize=0;strokeColor=#666666;strokeColor2=#008cff;strokeColor3=#c4c4c4;mainText=,;recursiveResize=0;container=0;" parent="1" vertex="1">
          <mxGeometry x="-2310" y="260" width="1320" height="720" as="geometry" />
        </mxCell>
        <mxCell id="LnX6BK-S7mx_78NqDa5w-3" value="Page 1" style="strokeWidth=1;shadow=0;dashed=0;align=center;html=1;shape=mxgraph.mockup.containers.anchor;fontSize=17;fontColor=#666666;align=left;whiteSpace=wrap;" parent="1" vertex="1">
          <mxGeometry x="-2249" y="267" width="110" height="26" as="geometry" />
        </mxCell>
        <mxCell id="LnX6BK-S7mx_78NqDa5w-4" value="https://www.hostname/admin/key/panel" style="strokeWidth=1;shadow=0;dashed=0;align=center;html=1;shape=mxgraph.mockup.containers.anchor;rSize=0;fontSize=17;fontColor=#666666;align=left;" parent="1" vertex="1">
          <mxGeometry x="-2179" y="315" width="470" height="26" as="geometry" />
        </mxCell>
        <mxCell id="LnX6BK-S7mx_78NqDa5w-5" value="Token" style="html=1;shadow=0;dashed=0;shape=mxgraph.bootstrap.rrect;rSize=5;strokeColor=#CED4DA;html=1;whiteSpace=wrap;fillColor=#FFFFFF;fontColor=#7D868C;align=left;spacingLeft=0;spacing=15;fontSize=14;" parent="1" vertex="1">
          <mxGeometry x="-1389" y="380" width="388" height="20" as="geometry" />
        </mxCell>
        <mxCell id="LnX6BK-S7mx_78NqDa5w-6" value="DISSABLE" style="html=1;shadow=0;dashed=0;shape=mxgraph.bootstrap.rightButton;strokeColor=#b85450;fillColor=#f8cecc;rSize=5;perimeter=none;whiteSpace=wrap;resizeHeight=1;fontSize=14;labelBackgroundColor=none;" parent="LnX6BK-S7mx_78NqDa5w-5" vertex="1">
          <mxGeometry x="1" width="81" height="20" relative="1" as="geometry">
            <mxPoint x="-81" as="offset" />
          </mxGeometry>
        </mxCell>
        <mxCell id="LnX6BK-S7mx_78NqDa5w-7" value="" style="line;strokeWidth=2;html=1;textOpacity=20;" parent="1" vertex="1">
          <mxGeometry x="-2299" y="405" width="1298" height="10" as="geometry" />
        </mxCell>
        <mxCell id="LnX6BK-S7mx_78NqDa5w-8" value="&lt;font style=&quot;font-size: 15px;&quot;&gt;Administration panel | User: username&lt;/font&gt;" style="text;html=1;align=left;verticalAlign=middle;whiteSpace=wrap;rounded=0;" parent="1" vertex="1">
          <mxGeometry x="-2259" y="375" width="320" height="30" as="geometry" />
        </mxCell>
        <mxCell id="LnX6BK-S7mx_78NqDa5w-9" value="" style="rounded=1;whiteSpace=wrap;html=1;absoluteArcSize=1;arcSize=14;strokeWidth=2;" parent="1" vertex="1">
          <mxGeometry x="-2279" y="495" width="1039.7727272727275" height="460" as="geometry" />
        </mxCell>
        <mxCell id="LnX6BK-S7mx_78NqDa5w-10" value="LOGS" style="text;html=1;align=center;verticalAlign=middle;whiteSpace=wrap;rounded=0;" parent="1" vertex="1">
          <mxGeometry x="-2279" y="495" width="150" height="34.716981132075475" as="geometry" />
        </mxCell>
        <mxCell id="LnX6BK-S7mx_78NqDa5w-11" value="" style="verticalLabelPosition=bottom;verticalAlign=top;html=1;shadow=0;dashed=0;strokeWidth=1;shape=mxgraph.android.quickscroll3;dy=0.499;fillColor=#33b5e5;strokeColor=#66D5F5;" parent="1" vertex="1">
          <mxGeometry x="-1256.2727272727273" y="538.3962264150944" width="10.227272727272728" height="407.9245283018869" as="geometry" />
        </mxCell>
        <mxCell id="LnX6BK-S7mx_78NqDa5w-12" value="" style="endArrow=none;dashed=1;html=1;dashPattern=1 3;strokeWidth=2;rounded=0;exitX=0.008;exitY=0.099;exitDx=0;exitDy=0;exitPerimeter=0;" parent="1" edge="1">
          <mxGeometry width="50" height="50" relative="1" as="geometry">
            <mxPoint x="-2266.3555718475072" y="529.7169811320756" as="sourcePoint" />
            <mxPoint x="-1251.8629032258066" y="529.7346938775511" as="targetPoint" />
          </mxGeometry>
        </mxCell>
        <mxCell id="LnX6BK-S7mx_78NqDa5w-14" value="" style="group" parent="1" vertex="1" connectable="0">
          <mxGeometry x="-2275" y="435" width="1230" height="40" as="geometry" />
        </mxCell>
        <mxCell id="LnX6BK-S7mx_78NqDa5w-15" value="LOGS" style="strokeWidth=1;shadow=0;dashed=0;align=center;html=1;shape=mxgraph.mockup.buttons.button;strokeColor=#666666;fontColor=#ffffff;mainText=;buttonStyle=round;fontSize=17;fontStyle=1;fillColor=#008cff;whiteSpace=wrap;" parent="LnX6BK-S7mx_78NqDa5w-14" vertex="1">
          <mxGeometry width="180" height="40" as="geometry" />
        </mxCell>
        <mxCell id="LnX6BK-S7mx_78NqDa5w-16" value="STATISTICS" style="strokeWidth=1;shadow=0;dashed=0;align=center;html=1;shape=mxgraph.mockup.buttons.button;strokeColor=#666666;fontColor=#000000;mainText=;buttonStyle=round;fontSize=17;fontStyle=1;fillColor=#DAE8FC;whiteSpace=wrap;" parent="LnX6BK-S7mx_78NqDa5w-14" vertex="1">
          <mxGeometry x="210" width="180" height="40" as="geometry" />
        </mxCell>
        <mxCell id="LnX6BK-S7mx_78NqDa5w-17" value="DASHBOADS BASE" style="strokeWidth=1;shadow=0;dashed=0;align=center;html=1;shape=mxgraph.mockup.buttons.button;strokeColor=#666666;fontColor=#000000;mainText=;buttonStyle=round;fontSize=17;fontStyle=1;fillColor=#DAE8FC;whiteSpace=wrap;" parent="LnX6BK-S7mx_78NqDa5w-14" vertex="1">
          <mxGeometry x="420" width="180" height="40" as="geometry" />
        </mxCell>
        <mxCell id="LnX6BK-S7mx_78NqDa5w-18" value="USERS" style="strokeWidth=1;shadow=0;dashed=0;align=center;html=1;shape=mxgraph.mockup.buttons.button;strokeColor=#666666;fontColor=#000000;mainText=;buttonStyle=round;fontSize=17;fontStyle=1;fillColor=#DAE8FC;whiteSpace=wrap;" parent="LnX6BK-S7mx_78NqDa5w-14" vertex="1">
          <mxGeometry x="646" width="180" height="40" as="geometry" />
        </mxCell>
        <mxCell id="LnX6BK-S7mx_78NqDa5w-19" value="POSTS" style="strokeWidth=1;shadow=0;dashed=0;align=center;html=1;shape=mxgraph.mockup.buttons.button;strokeColor=#666666;fontColor=#000000;mainText=;buttonStyle=round;fontSize=17;fontStyle=1;fillColor=#DAE8FC;whiteSpace=wrap;" parent="LnX6BK-S7mx_78NqDa5w-14" vertex="1">
          <mxGeometry x="856" width="180" height="40" as="geometry" />
        </mxCell>
        <mxCell id="LnX6BK-S7mx_78NqDa5w-20" value="STATISTICS" style="strokeWidth=1;shadow=0;dashed=0;align=center;html=1;shape=mxgraph.mockup.buttons.button;strokeColor=#666666;fontColor=#000000;mainText=;buttonStyle=round;fontSize=17;fontStyle=1;fillColor=#DAE8FC;whiteSpace=wrap;" parent="LnX6BK-S7mx_78NqDa5w-14" vertex="1">
          <mxGeometry x="1066" width="180" height="40" as="geometry" />
        </mxCell>
        <mxCell id="LnX6BK-S7mx_78NqDa5w-21" value="Type output message:" style="fillColor=none;strokeColor=none;fontSize=12;fontStyle=1;align=left;fontColor=#000000;sketch=0;hachureGap=4;pointerEvents=0;fontFamily=Times New Roman;" parent="1" vertex="1">
          <mxGeometry x="-1220" y="535" width="200" height="20.4" as="geometry" />
        </mxCell>
        <mxCell id="LnX6BK-S7mx_78NqDa5w-22" value="&lt;font face=&quot;Times New Roman&quot;&gt;INFO&lt;/font&gt;" style="rounded=1;fillColor=#F0F2F5;strokeColor=#D8DCE3;fontColor=#000000;align=left;verticalAlign=middle;fontStyle=1;fontSize=12;labelPosition=right;verticalLabelPosition=middle;spacingLeft=10;html=1;shadow=0;dashed=0;sketch=0;hachureGap=4;pointerEvents=0;fontFamily=Architects Daughter;fontSource=https%3A%2F%2Ffonts.googleapis.com%2Fcss%3Ffamily%3DArchitects%2BDaughter;" parent="1" vertex="1">
          <mxGeometry x="-1209" y="564.996936416185" width="16.8" height="18.24277456647399" as="geometry" />
        </mxCell>
        <mxCell id="LnX6BK-S7mx_78NqDa5w-23" value="&lt;font face=&quot;Times New Roman&quot;&gt;ERROR&lt;/font&gt;" style="html=1;shadow=0;dashed=0;shape=mxgraph.atlassian.checkbox_2;fillColor=#0057D8;strokeColor=none;fontColor=#000000;align=left;verticalAlign=middle;fontStyle=1;fontSize=12;labelPosition=right;verticalLabelPosition=middle;spacingLeft=10;sketch=0;hachureGap=4;pointerEvents=0;fontFamily=Architects Daughter;fontSource=https%3A%2F%2Ffonts.googleapis.com%2Fcss%3Ffamily%3DArchitects%2BDaughter;" parent="1" vertex="1">
          <mxGeometry x="-1209" y="603.0027167630058" width="16.8" height="18.24277456647399" as="geometry" />
        </mxCell>
        <mxCell id="LnX6BK-S7mx_78NqDa5w-24" value="&lt;font face=&quot;Times New Roman&quot;&gt;WARNING&lt;/font&gt;" style="html=1;shadow=0;dashed=0;shape=mxgraph.atlassian.checkbox_2;fillColor=#0057D8;strokeColor=none;fontColor=#000000;align=left;verticalAlign=middle;fontStyle=1;fontSize=12;labelPosition=right;verticalLabelPosition=middle;spacingLeft=10;sketch=0;hachureGap=4;pointerEvents=0;fontFamily=Architects Daughter;fontSource=https%3A%2F%2Ffonts.googleapis.com%2Fcss%3Ffamily%3DArchitects%2BDaughter;" parent="1" vertex="1">
          <mxGeometry x="-1209" y="641.0084971098265" width="16.8" height="18.24277456647399" as="geometry" />
        </mxCell>
        <mxCell id="LnX6BK-S7mx_78NqDa5w-25" value="&lt;font face=&quot;Times New Roman&quot;&gt;ADMIN&lt;/font&gt;" style="rounded=1;fillColor=#F0F2F5;strokeColor=#D8DCE3;fontColor=#000000;align=left;verticalAlign=middle;fontStyle=1;fontSize=12;labelPosition=right;verticalLabelPosition=middle;spacingLeft=10;html=1;shadow=0;dashed=0;sketch=0;hachureGap=4;pointerEvents=0;fontFamily=Architects Daughter;fontSource=https%3A%2F%2Ffonts.googleapis.com%2Fcss%3Ffamily%3DArchitects%2BDaughter;" parent="1" vertex="1">
          <mxGeometry x="-1209" y="679.0142774566475" width="16.8" height="18.24277456647399" as="geometry" />
        </mxCell>
        <mxCell id="LnX6BK-S7mx_78NqDa5w-26" value="&lt;font face=&quot;Times New Roman&quot;&gt;ACCEPT&lt;/font&gt;" style="rounded=1;fillColor=#0057D8;strokeColor=none;fontColor=#ffffff;align=center;verticalAlign=middle;fontStyle=0;fontSize=14;html=1;shadow=0;dashed=0;sketch=0;hachureGap=4;pointerEvents=0;fontFamily=Architects Daughter;fontSource=https%3A%2F%2Ffonts.googleapis.com%2Fcss%3Ffamily%3DArchitects%2BDaughter;" parent="1" vertex="1">
          <mxGeometry x="-1220" y="875" width="210" height="30" as="geometry" />
        </mxCell>
        <mxCell id="LnX6BK-S7mx_78NqDa5w-27" value="CONFIGURATIONS:" style="text;strokeColor=none;fillColor=none;html=1;fontSize=24;fontStyle=1;verticalAlign=middle;align=center;" parent="1" vertex="1">
          <mxGeometry x="-1202.2" y="495" width="183.2" height="40" as="geometry" />
        </mxCell>
        <mxCell id="LnX6BK-S7mx_78NqDa5w-28" value="Message Text" style="rounded=1;arcSize=9;fillColor=#ffffff;align=left;spacingLeft=5;strokeColor=#DAE8FC;html=1;strokeWidth=2;fontColor=#253858;fontSize=12" parent="1" vertex="1">
          <mxGeometry x="-1211" y="815" width="192" height="27.35" as="geometry" />
        </mxCell>
        <mxCell id="LnX6BK-S7mx_78NqDa5w-29" value="&lt;font color=&quot;#000000&quot;&gt;Message:&lt;/font&gt;" style="fillColor=none;strokeColor=none;html=1;fontSize=11;fontStyle=1;align=left;fontColor=#FFFFFF;fontStyle=1;fontSize=11" parent="1" vertex="1">
          <mxGeometry x="-1220" y="795" width="165" height="10.120481927710843" as="geometry" />
        </mxCell>
        <mxCell id="LnX6BK-S7mx_78NqDa5w-30" value="Today" style="rounded=1;arcSize=9;fillColor=#ffffff;align=left;spacingLeft=5;strokeColor=#DAE8FC;html=1;strokeWidth=2;fontColor=#253858;fontSize=12" parent="1" vertex="1">
          <mxGeometry x="-1211" y="745" width="192" height="27.35" as="geometry" />
        </mxCell>
        <mxCell id="LnX6BK-S7mx_78NqDa5w-31" value="" style="shape=mxgraph.gmdl.calendar;fillColor=#253858;strokeColor=none" parent="LnX6BK-S7mx_78NqDa5w-30" vertex="1">
          <mxGeometry x="1" y="0.5" width="18" height="18" relative="1" as="geometry">
            <mxPoint x="-24" y="-8" as="offset" />
          </mxGeometry>
        </mxCell>
        <mxCell id="LnX6BK-S7mx_78NqDa5w-32" value="" style="strokeWidth=2;html=1;shape=mxgraph.flowchart.merge_or_storage;whiteSpace=wrap;" parent="1" vertex="1">
          <mxGeometry x="-1045" y="821.6799999999998" width="16" height="14" as="geometry" />
        </mxCell>
        <mxCell id="LnX6BK-S7mx_78NqDa5w-34" value="&lt;font face=&quot;Times New Roman&quot;&gt;EXPORT&lt;/font&gt;" style="rounded=1;fillColor=#0057D8;strokeColor=none;fontColor=#ffffff;align=center;verticalAlign=middle;fontStyle=0;fontSize=14;html=1;shadow=0;dashed=0;sketch=0;hachureGap=4;pointerEvents=0;fontFamily=Architects Daughter;fontSource=https%3A%2F%2Ffonts.googleapis.com%2Fcss%3Ffamily%3DArchitects%2BDaughter;opacity=40;textOpacity=50;" parent="1" vertex="1">
          <mxGeometry x="-1220" y="915" width="210" height="30" as="geometry" />
        </mxCell>
        <mxCell id="LnX6BK-S7mx_78NqDa5w-35" value="&lt;font color=&quot;#000000&quot;&gt;Date:&lt;/font&gt;" style="fillColor=none;strokeColor=none;html=1;fontSize=11;fontStyle=1;align=left;fontColor=#FFFFFF;fontStyle=1;fontSize=11" parent="1" vertex="1">
          <mxGeometry x="-1220" y="723.56" width="165" height="10.120481927710843" as="geometry" />
        </mxCell>
        <mxCell id="LnX6BK-S7mx_78NqDa5w-36" value="" style="shape=flexArrow;endArrow=classic;startArrow=classic;html=1;rounded=0;" parent="1" edge="1">
          <mxGeometry width="100" height="100" relative="1" as="geometry">
            <mxPoint x="-989" y="620" as="sourcePoint" />
            <mxPoint x="-709" y="620" as="targetPoint" />
          </mxGeometry>
        </mxCell>
        <mxCell id="LnX6BK-S7mx_78NqDa5w-37" value="Активен/неактивен&lt;div&gt;токен&lt;/div&gt;" style="shape=callout;whiteSpace=wrap;html=1;perimeter=calloutPerimeter;position2=0.33;" parent="1" vertex="1">
          <mxGeometry x="-909" y="540" width="120" height="68" as="geometry" />
        </mxCell>
        <mxCell id="DxK8MZsMkvYj0RekWY_n-1" value="На эту страницу пользователь будет перенаправлен в том случае, если пользователь успешно авторизовался, или нажал на кнопку &quot;LOGS&quot;" style="whiteSpace=wrap;html=1;shape=mxgraph.basic.rectCallout;dx=30;dy=15;boundedLbl=1;" parent="1" vertex="1">
          <mxGeometry x="-129" y="170" width="240" height="90" as="geometry" />
        </mxCell>
        <mxCell id="DxK8MZsMkvYj0RekWY_n-13" value="" style="endArrow=classic;html=1;rounded=0;exitX=1;exitY=0.5;exitDx=0;exitDy=0;" parent="1" edge="1">
          <mxGeometry width="50" height="50" relative="1" as="geometry">
            <mxPoint x="1160.75" y="1010" as="sourcePoint" />
            <mxPoint x="1249.75" y="1010" as="targetPoint" />
          </mxGeometry>
        </mxCell>
        <mxCell id="DxK8MZsMkvYj0RekWY_n-14" value="Сам файл можно запросить у сервера. Сервер вернет файл, который надо сохранить на устройстве пользователя." style="rounded=0;whiteSpace=wrap;html=1;" parent="1" vertex="1">
          <mxGeometry x="1249.75" y="970" width="181.25" height="80" as="geometry" />
        </mxCell>
      </root>
    </mxGraphModel>
  </diagram>
</mxfile>
